<svg width="25" height="25" viewBox="0 0 25 25" fill="none" xmlns="http://www.w3.org/2000/svg">
<path fill-rule="evenodd" clip-rule="evenodd" d="M6.25001 12.5C6.25001 12.2928 6.33232 12.0941 6.47883 11.9476C6.62534 11.8011 6.82406 11.7187 7.03126 11.7187L16.0828 11.7187L12.7281 8.36562C12.6555 8.29299 12.5979 8.20675 12.5586 8.11185C12.5193 8.01694 12.499 7.91522 12.499 7.8125C12.499 7.70977 12.5193 7.60806 12.5586 7.51315C12.5979 7.41824 12.6555 7.33201 12.7281 7.25937C12.8008 7.18674 12.887 7.12912 12.9819 7.08981C13.0768 7.0505 13.1785 7.03026 13.2813 7.03026C13.384 7.03026 13.4857 7.0505 13.5806 7.08981C13.6755 7.12912 13.7617 7.18674 13.8344 7.25937L18.5219 11.9469C18.5946 12.0194 18.6524 12.1057 18.6917 12.2006C18.7311 12.2955 18.7514 12.3972 18.7514 12.5C18.7514 12.6028 18.7311 12.7045 18.6917 12.7994C18.6524 12.8943 18.5946 12.9806 18.5219 13.0531L13.8344 17.7406C13.6877 17.8873 13.4887 17.9697 13.2813 17.9697C13.0738 17.9697 12.8748 17.8873 12.7281 17.7406C12.5814 17.5939 12.499 17.395 12.499 17.1875C12.499 16.98 12.5814 16.7811 12.7281 16.6344L16.0828 13.2812L7.03126 13.2812C6.82406 13.2812 6.62534 13.1989 6.47883 13.0524C6.33232 12.9059 6.25001 12.7072 6.25001 12.5Z" fill="white"/>
</svg>
