<svg width="20" height="20" viewBox="0 0 20 20" fill="none" xmlns="http://www.w3.org/2000/svg">
<path d="M6.03001 2.47007C6.17046 2.6107 6.24935 2.80132 6.24935 3.00007C6.24935 3.19882 6.17046 3.38945 6.03001 3.53007L4.81001 4.75007H11C12.2361 4.75007 13.4445 5.11663 14.4723 5.80339C15.5001 6.49015 16.3012 7.46626 16.7743 8.6083C17.2473 9.75034 17.3711 11.007 17.1299 12.2194C16.8888 13.4318 16.2935 14.5454 15.4194 15.4195C14.5454 16.2936 13.4317 16.8888 12.2193 17.13C11.0069 17.3711 9.75028 17.2474 8.60824 16.7743C7.4662 16.3013 6.49009 15.5002 5.80333 14.4724C5.11657 13.4446 4.75001 12.2362 4.75001 11.0001C4.75001 10.8012 4.82903 10.6104 4.96968 10.4697C5.11033 10.3291 5.3011 10.2501 5.50001 10.2501C5.69892 10.2501 5.88969 10.3291 6.03034 10.4697C6.17099 10.6104 6.25001 10.8012 6.25001 11.0001C6.25001 11.9395 6.52859 12.8579 7.05053 13.639C7.57247 14.4202 8.31432 15.029 9.18227 15.3885C10.0502 15.748 11.0053 15.8421 11.9267 15.6588C12.8481 15.4755 13.6945 15.0231 14.3588 14.3588C15.0231 13.6945 15.4755 12.8482 15.6587 11.9268C15.842 11.0053 15.748 10.0503 15.3884 9.18233C15.0289 8.31438 14.4201 7.57253 13.639 7.05059C12.8578 6.52866 11.9395 6.25007 11 6.25007H4.81001L6.03001 7.47007C6.16249 7.61225 6.23461 7.80029 6.23119 7.9946C6.22776 8.1889 6.14905 8.37428 6.01163 8.51169C5.87422 8.64911 5.68884 8.72782 5.49453 8.73125C5.30023 8.73468 5.11219 8.66255 4.97001 8.53007L2.47001 6.03007C2.32956 5.88945 2.25067 5.69882 2.25067 5.50007C2.25067 5.30132 2.32956 5.1107 2.47001 4.97007L4.97001 2.47007C5.11064 2.32962 5.30126 2.25073 5.50001 2.25073C5.69876 2.25073 5.88939 2.32962 6.03001 2.47007Z" fill="#7B7B7B"/>
</svg>
