<svg width="20" height="20" viewBox="0 0 20 20" fill="none" xmlns="http://www.w3.org/2000/svg">
<rect x="5" y="6" width="10" height="9" fill="white"/>
<path fill-rule="evenodd" clip-rule="evenodd" d="M10 0.833374C4.93751 0.833374 0.833344 4.93754 0.833344 10C0.833344 15.0625 4.93751 19.1667 10 19.1667C15.0625 19.1667 19.1667 15.0625 19.1667 10C19.1667 4.93754 15.0625 0.833374 10 0.833374ZM13.9733 8.45004C14.0465 8.36641 14.1022 8.26899 14.1372 8.16351C14.1721 8.05804 14.1856 7.94664 14.1769 7.83586C14.1682 7.72509 14.1374 7.61718 14.0863 7.51848C14.0353 7.41978 13.965 7.3323 13.8796 7.26116C13.7943 7.19002 13.6955 7.13668 13.5893 7.10426C13.483 7.07184 13.3713 7.06101 13.2607 7.0724C13.1502 7.08379 13.0431 7.11716 12.9456 7.17057C12.8482 7.22397 12.7624 7.29633 12.6933 7.38337L9.11001 11.6825L7.25584 9.82754C7.09868 9.67574 6.88817 9.59175 6.66968 9.59365C6.45118 9.59554 6.24217 9.68319 6.08766 9.83769C5.93316 9.9922 5.84551 10.2012 5.84362 10.4197C5.84172 10.6382 5.92571 10.8487 6.07751 11.0059L8.57751 13.5059C8.65939 13.5877 8.75742 13.6516 8.86536 13.6934C8.97329 13.7353 9.08876 13.7542 9.2044 13.7489C9.32004 13.7437 9.43332 13.7144 9.53702 13.6629C9.64072 13.6115 9.73255 13.539 9.80668 13.45L13.9733 8.45004Z" fill="#5142FD"/>
</svg>
